<svg width="22" height="22" viewBox="0 0 22 22" fill="none" xmlns="http://www.w3.org/2000/svg">
<path d="M9.62495 17.875C9.20099 17.8768 8.78983 17.7299 8.46307 17.4598L2.21736 12.089C2.08226 11.9715 1.99803 11.8061 1.98238 11.6277C1.96674 11.4493 2.02091 11.2717 2.13349 11.1325L3.58366 9.35734C3.64183 9.28604 3.71372 9.22714 3.79508 9.18414C3.87644 9.14113 3.9656 9.1149 4.05728 9.10699C4.14897 9.09909 4.2413 9.10966 4.32882 9.1381C4.41634 9.16654 4.49726 9.21226 4.56678 9.27255L9.44162 13.5048L17.2791 4.90143C17.401 4.76728 17.571 4.68672 17.7521 4.67728C17.9331 4.66784 18.1105 4.73028 18.2457 4.85101L19.9544 6.38459C20.0218 6.44507 20.0767 6.51828 20.1157 6.60002C20.1548 6.68175 20.1773 6.7704 20.182 6.86086C20.1867 6.95133 20.1734 7.04182 20.143 7.12716C20.1126 7.21249 20.0657 7.29097 20.0048 7.35809L10.9908 17.2668C10.8179 17.4576 10.6072 17.6102 10.372 17.715C10.1368 17.8197 9.88239 17.8742 9.62495 17.875Z" fill="url(#paint0_linear)"/>
<defs>
<linearGradient id="paint0_linear" x1="11.0802" y1="4.67684" x2="11.0802" y2="17.875" gradientUnits="userSpaceOnUse">
<stop offset="0.278" stop-color="#65E04D"/>
<stop offset="0.458" stop-color="#5CD740"/>
<stop offset="0.79" stop-color="#44C11D"/>
<stop offset="1" stop-color="#33B004"/>
</linearGradient>
</defs>
</svg>