<svg width="38" height="38" viewBox="0 0 38 38" fill="none" xmlns="http://www.w3.org/2000/svg">
<g clip-path="url(#clip0)">
<path d="M11.0834 4.75C9.33383 4.75 7.91675 6.16708 7.91675 7.91667V30.0833C7.91675 31.8329 9.33383 33.25 11.0834 33.25H20.234C19.8128 32.7829 19.4967 32.2446 19.2877 31.6667C19.1088 31.1632 19.0001 30.6328 19.0001 30.0833C19.0001 28.8151 19.4939 27.6211 20.3917 26.7249L20.5834 26.5332V25.3333C20.5834 22.7098 22.7098 20.5833 25.3334 20.5833H26.5333L26.725 20.3916C26.8438 20.2729 26.9848 20.1884 27.1147 20.0854C27.2762 19.954 27.4368 19.8189 27.6125 19.7113C27.896 19.5418 28.1928 19.3999 28.5032 19.2907C29.0035 19.107 29.5324 19 30.0834 19V7.91667C30.0834 6.16708 28.6663 4.75 26.9167 4.75H11.0834ZM15.0417 11.0833H16.6251C17.0621 11.0833 17.4167 11.438 17.4167 11.875V13.4583C17.4167 13.8953 17.0621 14.25 16.6251 14.25H15.0417C14.6047 14.25 14.2501 13.8953 14.2501 13.4583V11.875C14.2501 11.438 14.6047 11.0833 15.0417 11.0833ZM21.3751 11.0833H22.9584C23.3954 11.0833 23.7501 11.438 23.7501 11.875V13.4583C23.7501 13.8953 23.3954 14.25 22.9584 14.25H21.3751C20.9381 14.25 20.5834 13.8953 20.5834 13.4583V11.875C20.5834 11.438 20.9381 11.0833 21.3751 11.0833ZM15.0417 17.4167H16.6251C17.0621 17.4167 17.4167 17.7713 17.4167 18.2083V19.7917C17.4167 20.2287 17.0621 20.5833 16.6251 20.5833H15.0417C14.6047 20.5833 14.2501 20.2287 14.2501 19.7917V18.2083C14.2501 17.7713 14.6047 17.4167 15.0417 17.4167ZM21.3751 17.4167H22.9584C23.3954 17.4167 23.7501 17.7713 23.7501 18.2083V19.7917C23.7501 20.2287 23.3954 20.5833 22.9584 20.5833H21.3751C20.9381 20.5833 20.5834 20.2287 20.5834 19.7917V18.2083C20.5834 17.7713 20.9381 17.4167 21.3751 17.4167ZM30.0834 22.1667C29.6785 22.1667 29.2735 22.321 28.9639 22.6305L27.8445 23.75H25.3334C24.6767 23.75 24.1139 24.1495 23.8738 24.7179C23.7937 24.9074 23.7501 25.1144 23.7501 25.3333V27.8444L22.6306 28.9639C22.4758 29.1186 22.3586 29.2959 22.2812 29.4865C22.2038 29.677 22.1667 29.8809 22.1667 30.0833C22.1667 30.4883 22.3211 30.8933 22.6306 31.2028L23.7501 32.3223V34.8333C23.7501 35.7089 24.4578 36.4167 25.3334 36.4167H27.8445L28.9639 37.5361C29.2727 37.8449 29.6781 38 30.0834 38C30.4887 38 30.8941 37.8449 31.2029 37.5361L32.3223 36.4167H34.8334C35.709 36.4167 36.4167 35.7089 36.4167 34.8333V32.3223L37.5362 31.2028C38.1553 30.5837 38.1553 29.583 37.5362 28.9639L36.4167 27.8444V25.3333C36.4167 24.4578 35.709 23.75 34.8334 23.75H32.3223L31.2029 22.6305C30.8933 22.321 30.4884 22.1667 30.0834 22.1667ZM15.0417 23.75H16.6251C17.0621 23.75 17.4167 24.1047 17.4167 24.5417V26.125C17.4167 26.562 17.0621 26.9167 16.6251 26.9167H15.0417C14.6047 26.9167 14.2501 26.562 14.2501 26.125V24.5417C14.2501 24.1047 14.6047 23.75 15.0417 23.75Z" fill="white"/>
</g>
<defs>
<clipPath id="clip0">
<rect width="38" height="38" fill="white"/>
</clipPath>
</defs>
</svg>